<svg id="Layer_1" data-name="Layer 1" xmlns="http://www.w3.org/2000/svg" viewBox="0 0 245.84 109.88"><defs><style>.cls-1{fill:#fff;}</style></defs><path class="cls-1" d="M106.75,187.12a22,22,0,0,1,6.45-5.39,18.31,18.31,0,0,1,9-2,21.6,21.6,0,0,1,8.37,1.62,19.05,19.05,0,0,1,6.7,4.6,21.64,21.64,0,0,1,4.43,7.23,28.72,28.72,0,0,1,0,19,21.74,21.74,0,0,1-4.43,7.23,19.05,19.05,0,0,1-6.7,4.6,21.6,21.6,0,0,1-8.37,1.62,19,19,0,0,1-9.16-2.06,19.19,19.19,0,0,1-6.27-5.3v6.31H99.21V163.2h7.54Zm27.74,9.08a14.37,14.37,0,0,0-2.89-5,13.21,13.21,0,0,0-4.6-3.29,15.21,15.21,0,0,0-6.14-1.18q-6.73,0-10.69,4.34t-3.94,11.61q0,7.28,3.94,11.61t10.69,4.34a15.21,15.21,0,0,0,6.14-1.18,13.21,13.21,0,0,0,4.6-3.29,14.37,14.37,0,0,0,2.89-5,21,21,0,0,0,0-12.88Z" transform="translate(-57.08 -139.46)"/><path class="cls-1" d="M156,182.74q4.22-3.06,12.19-3.06,9.11,0,13.36,4.25t4.25,12.14v28.48h-7.53v-6.22a15.81,15.81,0,0,1-6,5.21,18.19,18.19,0,0,1-8.42,1.89,17.8,17.8,0,0,1-6.35-1.05,13.72,13.72,0,0,1-4.65-2.85,12.17,12.17,0,0,1-2.89-4.3,14.28,14.28,0,0,1-1-5.39,13.28,13.28,0,0,1,1.05-5.43,11.83,11.83,0,0,1,3-4.08,15.3,15.3,0,0,1,4.47-2.72,20,20,0,0,1,5.61-1.27l12.36-1.22c1.87-.18,2.81-1,2.81-2.37v-1.14a6.41,6.41,0,0,0-2.41-5.21q-2.42-2-7.32-2a14,14,0,0,0-7.58,1.89,8.29,8.29,0,0,0-3.73,6l-6.66-3.59A13.8,13.8,0,0,1,156,182.74Zm8,22.62a8.46,8.46,0,0,0-5.39,2.28,6.08,6.08,0,0,0-1.71,4.29,5.84,5.84,0,0,0,2.06,4.6q2.06,1.8,6.09,1.8a14.73,14.73,0,0,0,5.61-1,12.83,12.83,0,0,0,4.16-2.67A11.54,11.54,0,0,0,177.4,211a10.35,10.35,0,0,0,.88-4.12V203.6Z" transform="translate(-57.08 -139.46)"/><path class="cls-1" d="M208,181.65a15.08,15.08,0,0,1,7.93-2,17.19,17.19,0,0,1,2.19.13c.7.08,1.4.19,2.1.3v8a18.92,18.92,0,0,0-2.15-.39,16.75,16.75,0,0,0-2.23-.14,14.12,14.12,0,0,0-6.14,1.19,10.18,10.18,0,0,0-4,3.37,13.69,13.69,0,0,0-2.15,5.26,34.46,34.46,0,0,0-.62,6.75v20.42h-7.53V180.73h7.27v6.57A14.57,14.57,0,0,1,208,181.65Z" transform="translate(-57.08 -139.46)"/><path class="cls-1" d="M222.45,193.52a21.94,21.94,0,0,1,12.1-12.09,24.61,24.61,0,0,1,18.23,0,21.94,21.94,0,0,1,12.1,12.09,24.61,24.61,0,0,1,0,18.23,21.91,21.91,0,0,1-12.1,12.1,24.61,24.61,0,0,1-18.23,0,21.91,21.91,0,0,1-12.1-12.1,24.61,24.61,0,0,1,0-18.23Zm35.28,2.81a14.34,14.34,0,0,0-3.07-5,14,14,0,0,0-4.77-3.25,17,17,0,0,0-12.45,0,14.12,14.12,0,0,0-4.78,3.25,14.47,14.47,0,0,0-3.06,5,18.65,18.65,0,0,0,0,12.62,14.47,14.47,0,0,0,3.06,5,14.12,14.12,0,0,0,4.78,3.25,17,17,0,0,0,12.45,0,14,14,0,0,0,4.77-3.25,14.34,14.34,0,0,0,3.07-5,18.65,18.65,0,0,0,0-12.62Z" transform="translate(-57.08 -139.46)"/><path class="cls-1" d="M298.54,143.84v79.27A21.85,21.85,0,0,1,276.69,245H61.46V165.25a21.42,21.42,0,0,1,21.41-21.41H298.54m4.38-4.38h-220a25.82,25.82,0,0,0-25.79,25.79v84.09H276.69a26.26,26.26,0,0,0,26.23-26.23V139.46Z" transform="translate(-57.08 -139.46)"/></svg>